<svg width="40" height="40" viewBox="0 0 40 40" fill="none" xmlns="http://www.w3.org/2000/svg">
<path d="M21.1575 27.8516H25.6994V33.0261H21.1575V27.8516Z" fill="#CFFF46"/>
<path d="M14.2722 20.3333H18.8141V25.5078H14.2722V20.3333Z" fill="#CFFF46"/>
<path d="M14.2722 27.8516H18.8141V33.0261H14.2722V27.8516Z" fill="#CFFF46"/>
<path d="M40 10.9818V2.96875H34.8438V0H32.5V2.96875H29.375V0H27.0312V2.96875H23.9062V0H21.5625V2.96875H18.4375V0H16.0938V2.96875H12.9688V0H10.625V2.96875H7.5V0H5.15625V2.96875H0V10.9818H40Z" fill="#CFFF46"/>
<path d="M7.26562 27.8516H11.9284V33.0261H7.26562V27.8516Z" fill="#CFFF46"/>
<path d="M21.1575 20.3333H25.6994V25.5078H21.1575V20.3333Z" fill="#CFFF46"/>
<path d="M28.0432 27.8516H32.7344V33.0261H28.0432V27.8516Z" fill="#CFFF46"/>
<path d="M7.26562 20.3333H11.9284V25.5078H7.26562V20.3333Z" fill="#CFFF46"/>
<path d="M28.0432 20.3333H32.7344V25.5078H28.0432V20.3333Z" fill="#CFFF46"/>
<path d="M0 13.3255V40H40V13.3255H0ZM35.0781 35.3699H4.92188V17.9895H35.0781V35.3699Z" fill="#CFFF46"/>
</svg>
