<svg width="40" height="40" viewBox="0 0 40 40" fill="none" xmlns="http://www.w3.org/2000/svg">
<path d="M20 0C8.97206 0 0 8.97206 0 20C0 31.0279 8.97206 40 20 40C31.0279 40 40 31.0279 40 20C40 8.97206 31.0279 0 20 0ZM20 18.1818C23.0076 18.1818 25.4545 20.6288 25.4545 23.6364C25.4545 26.0038 23.9299 28.0028 21.8182 28.7562V32.6061H18.1818V28.7562C16.0701 28.0028 14.5455 26.0038 14.5455 23.6364H18.1818C18.1818 24.6397 18.9967 25.4545 20 25.4545C21.0033 25.4545 21.8182 24.6397 21.8182 23.6364C21.8182 22.633 21.0033 21.8182 20 21.8182C16.9924 21.8182 14.5455 19.3712 14.5455 16.3636C14.5455 13.9962 16.0701 11.9972 18.1818 11.2438V7.39394H21.8182V11.2438C23.9299 11.9972 25.4545 13.9962 25.4545 16.3636H21.8182C21.8182 15.3603 21.0033 14.5455 20 14.5455C18.9967 14.5455 18.1818 15.3603 18.1818 16.3636C18.1818 17.367 18.9967 18.1818 20 18.1818Z" fill="#CFFF46"/>
</svg>
