<svg width="40" height="40" viewBox="0 0 40 40" fill="none" xmlns="http://www.w3.org/2000/svg">
<path d="M39.8084 17.5329C39.4389 14.1754 38.2034 11.108 36.2053 8.3751C32.9861 3.97458 28.681 1.28407 23.3049 0.347423C22.233 0.160899 21.1367 0.112358 20.0518 0C19.9796 0 19.908 0 19.8364 0C18.8227 0.110962 17.8047 0.184471 16.7981 0.339127C6.46105 1.92536 -1.01273 11.7131 0.168919 22.1262C0.732762 27.0965 2.81475 31.335 6.51082 34.7154C10.9053 38.7351 16.1255 40.4585 22.0436 39.8963C26.5857 39.4633 30.5491 37.6316 33.8158 34.4353C38.5598 29.7898 40.5327 24.1113 39.8084 17.5329ZM35.5965 27.7669C35.0911 26.8857 34.4532 25.657 34.1682 24.6084C33.7541 23.0859 32.7599 24.5569 32.6768 25.5512C32.5938 26.5455 31.9312 27.2911 30.6054 25.7997C29.2795 24.3084 29.0309 24.6395 28.6168 24.6395C28.2027 24.6395 27.457 25.6336 27.6226 30.2739C27.7406 33.5867 29.0475 34.1125 29.9015 34.3528C28.3159 35.4422 26.4939 36.3005 24.4491 36.8199C16.6335 38.8035 8.6558 35.2014 4.92844 28.045C1.45586 21.3771 3.14772 13.8317 6.67779 9.6788C6.77274 10.4257 6.86571 11.0967 6.94308 11.7702C7.15351 13.6092 6.99475 15.4241 6.61956 17.2317C6.5394 17.6169 6.56733 18.0558 6.67122 18.4347C6.72773 18.6416 7.03967 18.8859 7.25519 18.9064C7.42488 18.9229 7.72097 18.6539 7.78971 18.4519C7.91398 18.0908 7.91907 17.6859 7.95726 17.2977C7.98469 17.0239 7.98519 16.7464 8.00408 16.3169C8.2844 16.544 8.48883 16.6819 8.65876 16.8528C9.09176 17.2887 9.5297 17.7227 9.92484 18.1915C10.0994 18.3995 10.2792 18.6908 10.2744 18.9413C10.2635 19.4772 10.4986 19.8416 10.7858 20.2625C11.105 20.7304 11.2487 21.3188 11.4541 21.8607C11.54 22.0879 11.558 22.3442 11.6604 22.5627C11.8791 23.0306 12.2097 23.3511 12.778 23.386C13.3758 23.4238 13.5996 23.6559 13.6855 24.2675C13.5326 24.285 13.3804 24.3054 13.2277 24.3195C12.4986 24.389 12.1372 24.7239 12.166 25.4594C12.223 26.9202 12.75 28.1964 13.8343 29.2111C14.1331 29.4912 14.4505 29.7514 14.7409 30.0383C15.404 30.6933 15.6354 31.4627 15.3166 32.3671C15.1639 32.7982 14.9547 33.2216 14.887 33.6673C14.8181 34.1202 14.8176 34.6125 14.9225 35.0557C15.0312 35.5168 14.9846 36.5256 15.4609 36.4422C16.3034 36.2941 16.7876 36.4601 16.8532 35.5168C16.8656 35.3371 16.8517 35.3149 16.8039 35.1489C16.5534 34.2634 17.6908 31.7497 18.3734 31.2914C18.9564 30.8991 19.5411 30.5 20.0696 30.0393C20.8314 29.3772 21.1725 28.5217 20.8524 27.5256C20.5511 26.5882 20.9036 25.8998 21.559 25.2963C22.2275 24.6812 22.6659 23.9724 22.6202 23.0257C22.5746 22.0791 21.9551 21.3955 21.1478 21.4926C20.7531 21.5392 20.3747 21.7285 19.9899 21.8581C19.4258 22.0489 18.8753 22.3159 18.2963 22.4198C17.4849 22.5636 16.9848 22.0334 16.6229 21.3896C16.3316 20.8721 16.2357 20.8324 15.7301 21.1547C15.3036 21.4276 14.8779 21.7023 14.4361 21.949C13.9771 22.2053 13.727 22.1102 13.3732 21.7266C13.1639 21.5004 12.8742 21.3412 12.6052 21.1781C12.4117 21.0596 12.1502 21.027 11.9952 20.8785C11.7874 20.6776 11.4975 20.3795 11.5269 20.1616C11.5612 19.9058 11.8575 19.5855 12.116 19.4807C12.5614 19.3001 13.0675 19.2709 13.5452 19.1671C13.7995 19.1118 14.0576 19.0542 14.2981 18.9593C14.6273 18.828 14.6134 18.6117 14.3614 18.4088C14.2372 18.309 14.0835 18.2389 13.9337 18.1787C13.2055 17.8854 12.4732 17.605 11.7454 17.3107C11.5645 17.2381 11.3864 17.1488 11.224 17.0427C10.7665 16.742 10.7113 16.4109 11.1264 16.0446C12.7654 14.5989 14.6798 14.1756 16.3761 16.0963C16.9015 16.6912 17.2579 17.4331 17.7541 18.0573C18.1444 18.5497 18.5937 19.0118 19.0898 19.3917C19.2942 19.5477 19.7539 19.5743 19.9826 19.4489C20.3231 19.2625 20.335 18.8375 20.1637 18.4831C20.0156 18.1753 19.8416 17.8719 19.6324 17.6025C18.6687 16.3609 18.735 13.9413 20.6225 12.9318C21.2539 12.5937 21.8907 12.2376 22.1922 11.3305C21.8306 11.4283 21.5683 11.4914 21.3115 11.5701C19.8782 12.014 20.876 10.9448 21.5354 10.7584C21.9359 10.6445 21.1771 10.3377 21.1771 10.3377C21.1951 10.3064 21.681 10.1677 22.2214 9.93735C22.5932 9.77933 22.9733 9.60143 23.2821 9.34994C23.4822 9.18583 23.5593 8.87225 23.6909 8.62561C23.6575 8.58676 23.6249 8.54889 23.591 8.51004C23.2122 8.56105 22.834 8.61706 22.4544 8.65985C21.8111 8.73188 21.6602 8.60573 21.6005 7.95688C21.5592 7.51385 21.1077 7.27238 20.6862 7.49956C20.4009 7.65422 20.1543 7.87844 19.8798 8.05585C19.246 8.46635 18.7722 8.30225 18.5236 7.59443C18.3755 7.17308 18.1693 7.09341 17.7816 7.32938C17.5866 7.44782 17.424 7.62087 17.2257 7.73159C16.9006 7.91318 16.5701 8.09544 16.2211 8.2188C15.881 8.33921 15.4715 8.4266 15.2402 8.05371C14.9916 7.65274 15.2089 7.26236 15.5223 7.01095C15.9118 6.69827 16.3609 6.45557 16.7993 6.20991C17.4237 5.85846 18.0848 5.56615 18.6878 5.18292C19.1303 4.90055 19.3237 4.44036 19.1806 3.89737C19.0597 3.43907 18.7531 3.284 18.3285 3.49418C17.978 3.66822 17.6717 3.94058 17.3112 4.08086C17.0478 4.1818 16.7196 4.18287 16.4368 4.1331C16.3324 4.11462 16.2215 3.82534 16.2186 3.65738C16.2166 3.56055 16.413 3.39234 16.5383 3.37189C17.4092 3.2362 18.284 3.12138 19.16 3.02159C19.2758 3.00894 19.4499 3.08056 19.5225 3.17304C20.1011 3.90345 20.9085 4.25786 21.7578 4.51074C22.4714 4.72265 22.5748 4.6217 22.6729 3.87306C23.5895 3.6573 24.5211 3.23218 25.4435 3.81385C25.9551 4.13589 26.4217 4.54622 26.8548 4.97118C26.9621 5.07697 26.8966 5.40419 26.8451 5.61494C26.7771 5.89813 26.6203 6.15989 26.548 6.44309C26.4082 6.9919 26.763 7.4208 27.3301 7.41184C27.5092 7.40798 27.6878 7.37127 27.8679 7.36232C28.3918 7.33784 28.5777 7.53833 28.5297 8.06727C28.4617 8.81681 28.5864 8.90691 29.3428 8.77895C29.5602 8.74232 29.8113 8.84104 30.0331 8.91882C30.1651 8.96539 30.2675 9.09187 30.3851 9.18066C31.0885 9.7137 31.6263 9.51396 31.8323 8.64179C31.8545 8.54684 31.8516 8.44541 31.8711 8.34947C31.9527 7.95819 32.1736 7.8575 32.4376 8.1356C32.9969 8.72786 33.5216 9.35314 34.0891 9.99887C33.4794 10.5581 33.459 11.2378 33.594 11.9038C33.744 12.6447 33.5488 13.2884 33.2566 13.9411C32.9765 14.5664 32.6688 15.1878 32.4818 15.842C32.2022 16.8239 32.5196 17.2724 33.5168 17.4897C34.4683 17.6974 34.6241 17.8887 34.6601 18.819C34.7081 20.0878 35.3597 20.9635 36.4729 21.5223C36.72 21.6456 36.9826 21.7393 37.235 21.8442C37.1102 23.8001 36.5519 25.8357 35.5965 27.7669Z" fill="white"/>
</svg>
