<svg width="41" height="41" viewBox="0 0 41 41" fill="none" xmlns="http://www.w3.org/2000/svg">
<path d="M20.9082 40.5C31.9565 40.5 40.9082 31.5483 40.9082 20.5C40.9082 9.45167 31.9565 0.5 20.9082 0.5C9.85987 0.5 0.908203 9.45167 0.908203 20.5C0.908203 31.5483 9.85987 40.5 20.9082 40.5ZM10.0599 20.0667L29.3432 12.6317C30.2382 12.3083 31.0199 12.85 30.7299 14.2033L30.7315 14.2017L27.4482 29.67C27.2049 30.7667 26.5532 31.0333 25.6415 30.5167L20.6415 26.8317L18.2299 29.155C17.9632 29.4217 17.7382 29.6467 17.2215 29.6467L17.5765 24.5583L26.8432 16.1867C27.2465 15.8317 26.7532 15.6317 26.2215 15.985L14.7699 23.195L9.8332 21.655C8.76154 21.315 8.7382 20.5833 10.0599 20.0667Z" fill="white"/>
</svg>
