<svg width="41" height="41" viewBox="0 0 41 41" fill="none" xmlns="http://www.w3.org/2000/svg">
<path d="M20.9082 0.5C9.86288 0.5 0.908203 9.45427 0.908203 20.5C0.908203 31.5457 9.86288 40.5 20.9082 40.5C31.9535 40.5 40.9082 31.5457 40.9082 20.5C40.9082 9.45427 31.9535 0.5 20.9082 0.5ZM31.0533 22.6631C31.9854 23.5736 32.9716 24.4304 33.8085 25.435C34.1792 25.8794 34.5287 26.339 34.7946 26.8558C35.1744 27.5928 34.8315 28.401 34.1718 28.4448L30.0744 28.4439C29.0162 28.5315 28.1741 28.1047 27.4641 27.3812C26.8974 26.8047 26.3715 26.1888 25.8256 25.5926C25.6026 25.3479 25.3677 25.1175 25.0878 24.9362C24.5293 24.5728 24.044 24.6841 23.724 25.2677C23.3978 25.8614 23.3233 26.5194 23.2922 27.1803C23.2476 28.1464 22.9563 28.3989 21.9869 28.4443C19.9155 28.5413 17.95 28.2271 16.1233 27.1828C14.5119 26.2616 13.2646 24.9616 12.1778 23.4897C10.0613 20.6203 8.44048 17.471 6.98411 14.2314C6.65634 13.5017 6.89613 13.1114 7.70104 13.0962C9.03833 13.0704 10.3756 13.0737 11.7129 13.095C12.2572 13.1036 12.6173 13.415 12.8264 13.9285C13.549 15.7065 14.435 17.3982 15.5451 18.9671C15.841 19.3849 16.143 19.8015 16.5731 20.0965C17.0477 20.4223 17.4095 20.3146 17.6333 19.7847C17.7765 19.4479 17.8383 19.0878 17.8694 18.7269C17.9758 17.4907 17.9885 16.2549 17.8044 15.0236C17.6898 14.253 17.2564 13.7554 16.4884 13.6098C16.0972 13.5357 16.1544 13.3908 16.3447 13.1674C16.675 12.7811 16.9843 12.5421 17.6026 12.5421L22.232 12.5413C22.9616 12.6846 23.1253 13.0119 23.2243 13.7469L23.2284 18.8914C23.2198 19.1758 23.3712 20.0188 23.8819 20.205C24.2911 20.34 24.5612 20.0118 24.8059 19.7528C25.9161 18.5747 26.7071 17.1842 27.4154 15.745C27.7281 15.1103 27.9977 14.4536 28.2596 13.7956C28.4544 13.309 28.7572 13.0696 29.3064 13.0778L33.7643 13.0831C33.8956 13.0831 34.029 13.0843 34.1592 13.1069C34.9105 13.2353 35.1163 13.5586 34.8839 14.2915C34.518 15.443 33.8072 16.4022 33.1124 17.3638C32.3676 18.3934 31.5734 19.387 30.836 20.421C30.1583 21.3663 30.2119 21.8422 31.0533 22.6631Z" fill="white"/>
</svg>
