<svg width="41" height="41" viewBox="0 0 41 41" fill="none" xmlns="http://www.w3.org/2000/svg">
<path d="M21.2415 0.5C10.3968 0.5 1.57482 9.322 1.57482 20.1667C1.57482 23.5973 2.47216 26.968 4.17216 29.9333L0.942156 39.6227C0.864822 39.8553 0.920822 40.1107 1.08816 40.2893C1.21616 40.426 1.39349 40.5 1.57482 40.5C1.63149 40.5 1.68816 40.4927 1.74416 40.478L12.3222 37.6947C15.0702 39.0947 18.1482 39.8333 21.2415 39.8333C32.0862 39.8333 40.9082 31.0113 40.9082 20.1667C40.9082 9.322 32.0862 0.5 21.2415 0.5ZM33.5135 29.0967L32.3415 30.2693C30.8615 31.7493 29.2102 32.5 27.4348 32.5C25.0415 32.5 22.4608 31.1333 19.7662 28.438L12.9702 21.6427C10.8448 19.5173 9.53882 17.4527 9.08816 15.5053C8.54149 13.1407 9.23149 10.9747 11.1395 9.06733L12.3122 7.89467C13.0662 7.14067 14.2855 6.95533 15.2302 7.45533C17.0048 8.39467 18.8435 11.472 19.0475 11.82C19.4155 12.4647 19.5282 13.1313 19.3695 13.7027C19.2482 14.1393 18.9748 14.4953 18.5775 14.7373C18.0388 15.188 17.4075 15.7493 17.2962 15.892C16.6188 16.8913 16.6962 17.6587 17.5688 18.532L22.8768 23.84C23.7568 24.7207 24.5108 24.7933 25.5262 24.1053C25.6602 24.0007 26.2208 23.3693 26.6715 22.8307C27.0082 22.274 27.5595 21.9693 28.2302 21.9693C28.6695 21.9693 29.1368 22.1027 29.5815 22.356C29.9362 22.5647 33.0142 24.4033 33.9528 26.1773C34.4662 27.148 34.2902 28.32 33.5135 29.0967Z" fill="white"/>
</svg>
