<svg width="21" height="22" viewBox="0 0 21 22" fill="none" xmlns="http://www.w3.org/2000/svg">
<path d="M11.5138 1.58896L13.8823 6.38821C14.047 6.722 14.3655 6.95329 14.7339 7.00673L20.0303 7.77638C20.9581 7.9113 21.3283 9.0511 20.6572 9.7051L16.8247 13.4408C16.5584 13.7005 16.4366 14.0751 16.4997 14.4417L17.4042 19.7167C17.5628 20.6405 16.593 21.3449 15.7633 20.909L11.0263 18.4187C10.6969 18.2457 10.3031 18.2457 9.97364 18.4187L5.23659 20.909C4.40693 21.3453 3.43709 20.6405 3.59567 19.7167L4.50023 14.4417C4.56331 14.0751 4.44153 13.7005 4.1752 13.4408L0.342724 9.7051C-0.328364 9.05066 0.0417856 7.91086 0.96957 7.77638L6.266 7.00673C6.6344 6.95329 6.95286 6.722 7.11757 6.38821L9.48609 1.58896C9.90048 0.748343 11.099 0.748343 11.5138 1.58896Z" fill="#CFFF46"/>
</svg>
