<svg width="40" height="41" viewBox="0 0 40 41" fill="none" xmlns="http://www.w3.org/2000/svg">
<path d="M21.9312 1.75571L26.4427 11.3145C26.7564 11.9794 27.363 12.44 28.0647 12.5465L38.1532 14.0794C39.9204 14.3481 40.6255 16.6183 39.3472 17.9209L32.0472 25.3614C31.5399 25.8788 31.3079 26.6247 31.4281 27.355L33.1511 37.8613C33.4531 39.7014 31.6058 41.1043 30.0255 40.2362L21.0025 35.2762C20.3751 34.9316 19.6249 34.9316 18.9975 35.2762L9.97451 40.2362C8.39419 41.1052 6.54687 39.7014 6.84892 37.8613L8.57191 27.355C8.69206 26.6247 8.4601 25.8788 7.9528 25.3614L0.652811 17.9209C-0.625459 16.6174 0.079592 14.3473 1.84681 14.0794L11.9353 12.5465C12.637 12.44 13.2436 11.9794 13.5573 11.3145L18.0688 1.75571C18.8582 0.0814301 21.141 0.0814301 21.9312 1.75571Z" fill="#38D800"/>
</svg>
