<svg width="40" height="40" viewBox="0 0 40 40" fill="none" xmlns="http://www.w3.org/2000/svg">
<path fill-rule="evenodd" clip-rule="evenodd" d="M0 20C0 8.9543 8.9543 0 20 0C31.0456 0 40 8.9543 40 20C40 31.0456 31.0456 40 20 40C8.9543 40 0 31.0456 0 20ZM27.6642 25.1094C27.0514 26.0284 25.8096 26.2768 24.8906 25.6642L19.6902 22.1972C18.6342 21.4932 18 20.3082 18 19.0392V19V10C18 8.89544 18.8954 8 20 8C21.1046 8 22 8.89544 22 10V18.9296L27.1094 22.3358C28.0284 22.9486 28.2768 24.1904 27.6642 25.1094Z" fill="#CFFF46"/>
</svg>
